<?xml version="1.0" standalone="no"?>
<!DOCTYPE svg PUBLIC "-//W3C//DTD SVG 20010904//EN"
 "http://www.w3.org/TR/2001/REC-SVG-20010904/DTD/svg10.dtd">
<svg version="1.0" xmlns="http://www.w3.org/2000/svg"
 width="1080.000000pt" height="1280.000000pt" viewBox="0 0 1080.000000 1280.000000"
 preserveAspectRatio="xMidYMid meet">
<metadata>
Created by potrace 1.15, written by Peter Selinger 2001-2017
retrieved from https://svgsilh.com/image/2025994.html
changed to white by me.
</metadata>
<g transform="translate(0.000000,1280.000000) scale(0.100000,-0.100000)"
fill="#ffffff" stroke="none">
<path d="M9680 12794 c-927 -41 -1392 -82 -1890 -170 -890 -157 -1473 -435
-2072 -988 -398 -368 -662 -741 -868 -1226 -92 -218 -125 -257 -166 -195 -26
40 -13 227 45 635 71 506 75 542 75 775 1 231 -5 265 -55 290 -53 28 -191 16
-387 -35 -106 -27 -214 -65 -437 -153 -104 -42 -289 -105 -410 -142 -230 -69
-291 -95 -301 -129 -10 -30 39 -63 121 -81 39 -9 175 -24 302 -34 249 -20 274
-26 293 -77 28 -74 0 -251 -94 -599 -214 -784 -386 -1107 -925 -1735 -111
-129 -233 -282 -270 -340 -90 -138 -129 -176 -237 -232 -153 -80 -291 -122
-714 -218 -344 -78 -456 -120 -645 -240 -178 -113 -249 -142 -615 -251 -263
-79 -344 -113 -388 -164 -117 -132 25 -306 355 -435 200 -79 465 -139 918
-209 473 -73 751 -101 1097 -108 l276 -6 31 -161 c45 -238 51 -282 51 -381 0
-154 -30 -231 -221 -572 -222 -398 -302 -585 -356 -843 -25 -115 -27 -144 -27
-360 -1 -202 2 -251 22 -352 56 -293 148 -479 295 -595 114 -89 211 -188 317
-324 123 -158 210 -237 315 -288 122 -60 187 -73 370 -77 183 -5 172 1 196
-109 20 -92 13 -257 -21 -520 -96 -731 -82 -990 81 -1461 106 -307 279 -658
310 -627 5 5 -2 51 -16 103 -13 52 -46 183 -74 290 -103 404 -106 553 -21
1070 37 224 49 458 30 605 -15 126 -65 329 -128 523 l-50 152 27 6 c14 3 33 8
42 10 13 4 25 -31 68 -188 111 -414 135 -555 134 -798 0 -155 -5 -219 -31
-395 -51 -348 -53 -363 -53 -570 0 -244 26 -423 57 -392 3 3 15 97 25 209 27
301 59 486 114 669 109 359 125 542 75 834 -32 185 -70 282 -209 530 -33 60
-61 114 -61 120 0 12 87 38 100 30 4 -3 11 -17 15 -32 3 -15 34 -91 67 -168
137 -318 192 -540 191 -775 -1 -166 -14 -262 -77 -559 -47 -215 -54 -271 -36
-271 49 0 314 551 393 820 37 125 49 193 49 286 0 191 -64 317 -277 544 -54
58 -116 127 -137 155 l-40 49 53 18 c96 33 205 49 256 38 133 -30 288 -185
488 -485 218 -329 375 -667 740 -1595 288 -735 352 -881 389 -888 18 -4 19 1
12 77 -14 172 -77 433 -207 858 -164 537 -199 656 -249 848 -72 279 -101 444
-107 620 -6 185 14 303 75 429 92 190 195 270 557 431 356 157 568 305 860
600 347 349 659 744 779 983 44 89 62 142 49 142 -5 0 -51 -62 -103 -138 -203
-294 -389 -521 -592 -724 -203 -202 -363 -321 -564 -421 -236 -118 -379 -154
-969 -242 -466 -70 -582 -100 -1150 -290 -592 -198 -791 -245 -1045 -245 -149
0 -236 18 -333 67 -271 136 -688 577 -821 864 -59 128 -71 186 -71 359 0 161
10 219 44 261 16 20 22 22 44 12 57 -26 169 -224 267 -471 29 -74 60 -136 68
-140 22 -8 38 20 71 124 85 264 131 318 484 573 210 152 294 217 380 300 66
63 82 91 52 91 -27 0 -140 -47 -282 -119 -238 -119 -442 -211 -553 -249 -92
-32 -117 -36 -200 -36 -84 0 -102 3 -152 27 -66 32 -120 90 -136 146 -18 60
-14 166 10 255 15 57 73 184 192 421 184 366 243 511 325 795 111 387 147 577
138 735 -9 170 -50 253 -230 456 -150 171 -213 270 -252 399 -47 158 -23 356
65 539 49 100 58 112 167 216 366 348 469 466 655 750 90 137 196 328 247 443
111 252 182 537 341 1364 103 536 126 609 208 665 61 40 182 38 345 -8 53 -14
102 -62 124 -117 67 -174 -72 -873 -246 -1238 -98 -204 -188 -309 -373 -430
-105 -69 -158 -111 -158 -126 0 -16 99 -7 298 27 280 48 365 52 525 26 290
-48 325 -28 388 219 40 158 86 265 185 429 288 480 768 985 1249 1314 582 397
1137 549 2520 687 617 62 1335 88 1404 51 l24 -13 -24 -19 c-37 -29 -158 -73
-344 -124 -774 -214 -913 -262 -1375 -465 -436 -192 -493 -207 -728 -194 -265
14 -428 11 -502 -9 -229 -63 -564 -291 -865 -592 -170 -170 -249 -264 -500
-596 -206 -272 -303 -383 -396 -455 -73 -56 -181 -114 -287 -155 -46 -17 -80
-35 -75 -40 14 -14 145 -29 352 -39 550 -28 667 -54 1296 -298 177 -68 504
-179 780 -264 l140 -43 -170 -6 c-134 -6 -190 -12 -265 -32 -185 -48 -284
-109 -317 -195 -37 -97 -9 -329 73 -598 55 -185 100 -281 159 -341 59 -62 91
-68 124 -27 25 32 26 62 6 199 -19 129 -19 304 0 374 22 84 62 141 120 170
125 65 380 8 583 -131 69 -47 181 -158 203 -200 44 -86 13 -171 -104 -287 -82
-81 -188 -158 -307 -224 -89 -49 -130 -87 -130 -120 0 -37 72 -127 215 -267
203 -200 302 -323 545 -680 188 -275 212 -309 315 -435 169 -206 345 -351 595
-489 119 -66 532 -266 549 -266 3 0 -43 27 -102 60 -271 151 -462 287 -629
448 -133 128 -212 231 -410 532 -161 245 -250 362 -452 593 -137 157 -166 199
-166 243 0 46 26 72 183 185 160 115 300 249 337 324 38 76 35 169 -7 256 -40
80 -332 524 -418 634 -74 95 -168 185 -248 238 -110 73 -188 104 -732 292
-603 209 -814 295 -878 359 -34 33 -37 42 -37 91 0 101 71 249 213 441 259
351 616 692 972 928 394 261 825 455 1690 761 250 89 692 249 880 320 366 137
495 233 384 287 -77 38 -214 50 -619 53 -212 1 -419 1 -460 -1z m-7221 -4586
c-19 -63 -22 -229 -6 -333 9 -55 14 -102 11 -104 -2 -2 -12 3 -22 12 -115 104
-602 41 -1218 -157 -316 -102 -457 -127 -716 -129 -255 -3 -246 9 90 118 592
191 680 225 844 327 166 104 321 153 773 243 126 25 231 48 234 50 14 14 18 1
10 -27z"/>
<path d="M5848 8080 c-159 -28 -301 -122 -519 -341 -137 -137 -133 -162 17
-129 118 26 232 28 311 5 32 -9 110 -38 173 -65 283 -118 414 -128 609 -46
190 80 371 239 371 327 0 41 -59 84 -160 117 -292 96 -663 158 -802 132z"/>
</g>
</svg>
